<svg xmlns="http://www.w3.org/2000/svg" width="223" height="224"><path d="M106.8 157a236 235 0 0 0-3.6-8c-2.4-5-3.5-7.8-3.2-8.1.6-.6 1.6 1.1 5.6 9.9 3.4 7.7 4 8.7 4.4 7.8a299.3 299.3 0 0 1 8.8-17.8c.3 0 .5.1.5.4 0 .3-4.3 9.8-7.1 15.8a41.2 41 0 0 0-1.7 4c-.6 2-1.5 1-3.7-4zm-2.2-25.5c0-9 0-10.6.7-10.6.6 0 .7 1.4.7 9.9 0 5.4-.1 10.2-.3 10.6-.8 2.2-1.1-.2-1.1-9.9zm9 0c0-8.3.1-10.6.6-10.5.4.2.6 2.8.7 10.7.1 9.1 0 10.5-.6 10.5s-.7-1.5-.7-10.7zm25.6-9.7c0-.6 3.4-2.2 16-7.8 2-.9 3.3-1.6 3-1.6-1.3 0-19-8.2-19-8.8 0-.3.1-.6.3-.6 1 0 21 9.3 21 9.7 0 .4-18.9 9.2-20.6 9.6-.4 0-.7-.2-.7-.5zm-61.6-1.4l-6.4-3a328.3 327 0 0 0-7-3.1c-2-1-3.7-1.8-3.7-2 0-.4 1.8-1.4 5.2-2.9a369 367.5 0 0 0 7-3.2c6.4-2.9 8.7-3.8 9-3.5.6.6-.7 1.3-9.5 5.2l-9.2 4.2 9.4 4.4c5.2 2.3 9.4 4.5 9.4 4.8 0 .8-.8.7-4.2-1zm2.8-3.5c0-.6 1.5-.7 10.7-.7 8.4 0 10.7.1 10.5.6-.1.4-2.8.6-10.7.7-9.1.1-10.5 0-10.5-.6zm38.9 0c0-.6 1.4-.7 9.9-.7 5.4 0 10.2.1 10.6.3 2.3.8-.2 1.1-9.9 1.1-9.1 0-10.6 0-10.6-.7zM81 108.3c-2-.8.5-1 10-1 9.2 0 10.7 0 10.7.6 0 .7-1.4.7-10 .7a133 133 0 0 1-10.7-.3zm38.4-.2c.1-.5 2.8-.7 10.7-.8 9.1 0 10.5 0 10.5.6 0 .7-1.5.8-10.7.8-8.4 0-10.7-.2-10.5-.6zm-14-5.4c-.2-.2-.4-5-.4-10.6 0-8.9.1-10.4.8-10.4.6 0 .7 1.5.7 10.7 0 9.7-.2 11.2-1.1 10.3zM114 93c0-5.4 0-10.2.2-10.6.9-2.2 1.2.3 1.2 9.9 0 9-.1 10.6-.7 10.6s-.7-1.4-.7-9.9zm-13.2-10.8c.8-2.5 9.2-20.4 9.6-20.4.5 0 9.2 18.8 9.6 20.6.1.5 0 .7-.4.6-.6-.2-3.4-6-8.7-17.8-.4-.9-1 .1-4.5 7.8l-4.4 9.5c-.7.8-1.5.7-1.2-.3z"/></svg>