<svg width="100" height="100" viewBox="0 0 26.46 26.46" xmlns="http://www.w3.org/2000/svg"><path d="M11.7 24.05c-.76-1.22-1.65-2.64-1.99-3.15-.88-1.35-.25-1.15 1.58.5.88.78 1.7 1.43 1.84 1.42.14 0 1.03-.64 1.99-1.42.95-.78 1.8-1.36 1.87-1.29.07.08-.3.81-.84 1.64-.53.83-1.37 2.18-1.86 3-.5.83-.97 1.5-1.05 1.5-.08.01-.77-.98-1.53-2.2zm2 .85l1.44-2.21c1.15-1.79 1.05-1.78-1.08.1l-.79.69-1.54-1.26c-1.14-.92-1.42-1.06-1.08-.54l1.4 2.22c.52.83 1.04 1.5 1.14 1.5.11 0 .34-.22.52-.5zm6.53-7.97c0-.1.66-.92 1.46-1.83.8-.9 1.46-1.77 1.46-1.91 0-.15-.65-1.02-1.45-1.95a8.27 8.27 0 0 1-1.34-1.8c.18-.18 6.07 3.5 6.08 3.8.01.23-5.7 3.86-6.09 3.86-.06 0-.12-.08-.12-.17zm5.64-3.82c-.13-.11-1.16-.76-2.28-1.45l-2.04-1.24 1.1 1.33c1.22 1.46 1.2 1.76-.2 3.04-1.36 1.24-.8 1.18 1.45-.16 1.22-.73 2.1-1.41 1.97-1.52zM2.93 15.03C1.37 14.04.09 13.1.09 12.95c0-.23 3.41-2.41 5.64-3.6.93-.5.56.22-.94 1.83-.8.86-1.46 1.7-1.46 1.84 0 .16.5.85 1.1 1.54 2.5 2.86 2.36 2.9-1.5.47zm1.7.28c-.3-.35-.88-1-1.27-1.42l-.71-.78 1.27-1.5 1.28-1.48-1.76.98c-3.51 1.96-3.44 1.66-.81 3.35 1.27.8 2.36 1.48 2.42 1.48.07.01-.13-.27-.43-.63zM9.7 5.3l2-3.14a12.7 12.7 0 0 1 1.58-2.21c.26-.02 4.04 6.08 3.87 6.25-.2.2-1.2-.78-1.2-1.18 0-.28-2.15-3.98-2.58-4.46-.1-.1-1.4 1.76-2.48 3.53l-.7 1.14 1.51-1.24 1.52-1.24.8.57c1.04.72 2 1.77 1.64 1.77-.15 0-.66-.39-1.12-.86-.46-.47-1-.86-1.2-.86-.2 0-1.12.65-2.03 1.43-1.93 1.66-2.48 1.83-1.61.5z"/><path d="M15.52 4.85c.05.03.1.04.13.1v.03h.04c.04.03.06.09.1.1.02.02.04 0 .06 0h.04v.06h.06l.05.06c.01 0 .04-.02.04 0 0 0-.12-.02 0 .03.13.06-.04-.09.1.06" fill="none" stroke="#000" stroke-width=".29"/></svg>