<svg xmlns="http://www.w3.org/2000/svg" width="237.3" height="249.3" version="1" viewBox="0 0 178 187"><path d="M49.6 30.7c-4 5.1-4.1 5.5-2.5 8.2 1.2 1.7 1.3 1.7 3.3-.3l2.1-2.1.3 5.2c.3 5.1.4 5.3 3.3 5.3H59V33h3.5c3.1 0 3.5-.3 3.5-2.5 0-2.6-.5-2.8-8.6-3.9-4-.6-4.3-.4-7.8 4.1zM135.3 27.7c-.7.2-1.3 1.6-1.3 2.9 0 2.3.2 2.4 7.6 2.4h7.6l-1.6 2.5c-2.1 3.1-2 3.8.4 5.3 1.8 1.1 2.4.9 5-2l3-3.2v13.5l2.8-.3 2.7-.3.3-10.8.3-10.7-12.8.1c-7 0-13.4.3-14 .6zM53.6 49.7c-.3.4-.6 3-.6 5.9v5.3l-4.7.3c-4.4.3-4.8.5-5.1 3-.3 2.7-.2 2.8 4.7 2.8H53v4.5c0 4.1.2 4.5 2.4 4.5 2.5 0 3.6-2.1 3.6-7.3 0-1.5.4-2.7.9-2.7s1.2-.8 1.4-1.8c.4-1.3.5-1.1.6.5.1 2.2.5 2.3 7.7 2.3h7.5l-.3-2.8-.3-2.7-8.5-.1h-8.5L59 56c-.4-4.2-.9-5.4-2.7-6.1-1.1-.4-2.4-.5-2.7-.2zM28.6 55.7c-2 2.1-3.6 4.1-3.6 4.5 0 .5-.7.8-1.5.8-1.2 0-1.5 1.9-1.5 11v11h6V67h6c5.7 0 6-.1 6-2.4 0-2.5-1.6-3.6-5.2-3.6-1.7 0-1.8-.3-.8-1.5.7-.8.9-1.5.5-1.5s-.2-.7.5-1.5c1-1.2 1-1.8 0-3-1.8-2.2-2.5-1.9-6.4 2.2zM127.5 57.3c-3 3-4.5 3.7-7.5 3.7-2.9 0-4.1.6-5.3 2.4-.9 1.3-1.3 2.6-1 3 .4.3 3 .6 6 .6h5.3v3.4c0 2.6.5 3.5 2.2 3.9 3.3.9 3.8.1 3.8-6 0-4.5.5-6.2 2.2-8l2.2-2.3-2.1-2.2-2.2-2.1-3.6 3.6zM53.7 93.7c-.4.3-.7 4.8-.7 9.8 0 7.9-.3 9.4-2 11-2.6 2.3-2.5 3.4.3 4.4 1.4.6 2.9.4 4.2-.5 1.1-.8 4.4-1.4 7.7-1.4 6.2 0 7-.5 6.1-3.8-.5-1.9-1.2-2.2-5.4-2.2H59v-6.8c0-3.7-.3-7.7-.6-9-.6-2.1-3.3-3-4.7-1.5zM156.7 99.6c-.4.4-.7 3.1-.7 6v5.3l-8.2.3c-8.2.3-8.3.3-8.6 3-.3 2.8-.2 2.8 5.2 2.8 4.7 0 5.4.3 4.9 1.6-.3.9 0 2 .8 2.6 1.1.8 1 .8-.5.4-1.3-.4-3 .5-5.7 3.3-4.6 4.5-4.8 5.8-1.4 6.7 2.1.5 3.2-.1 6.1-3.2 8.4-9.3 10.6-11.4 12-11.4 1.2 0 1.4-1.6 1.2-8.8-.3-7.9-.5-8.7-2.3-9-1.2-.2-2.4 0-2.8.4zM22 116.1v13l2.8-.3 2.7-.3.3-9.5c.4-13-.2-16-3.3-16H22v13.1zM125 134.5V145h-4.5c-4.3 0-4.5.1-4.5 3v3h7.1c6.1 0 7.3-.3 9-2.3 1-1.2 1.8-2.6 1.9-3.1 0-.4 1.1-1.7 2.4-2.7 1.3-1 3.3-3.4 4.4-5.3 1.7-3 1.8-3.5.5-4-2.9-1.2-4.7-.5-7.4 2.6l-2.8 3.3-.1-7.8V124h-6v10.5zM32.1 134.6c-3.1 3.6-4.8 4.9-4.4 3.5a12 12 0 0 0-.1-4.6c-.6-2.2-.9-2.3-3.1-1.3-2.4 1.1-2.5 1.5-2.5 10v8.9l9.3-.3c9.1-.3 9.2-.3 9.2-2.8 0-2.2-.5-2.5-4.3-2.8l-4.3-.3 2.3-3c1.3-1.7 3.5-4.3 4.9-5.7 4.5-4.6 4.1-7.1-1.3-7.2a40 40 0 0 0-5.7 5.6zM45.5 147.1c-.4 1.2-.3 2.5.2 3s7 .8 14.4.7l13.4-.3.3-2.8.3-2.7h-14c-13.3 0-14 .1-14.6 2.1z"/></svg>