<?xml version="1.0" standalone="no"?>
<!DOCTYPE svg PUBLIC "-//W3C//DTD SVG 20010904//EN"
 "http://www.w3.org/TR/2001/REC-SVG-20010904/DTD/svg10.dtd">
<svg version="1.0" xmlns="http://www.w3.org/2000/svg"
 width="178.000000pt" height="187.000000pt" viewBox="0 0 178.000000 187.000000"
 preserveAspectRatio="xMidYMid meet">
<metadata>
Created by potrace 1.15, written by Peter Selinger 2001-2017
</metadata>
<g transform="translate(0.000000,187.000000) scale(0.100000,-0.100000)"
fill="#000000" stroke="none">
<path d="M496 1563 c-40 -51 -41 -55 -25 -82 12 -17 13 -17 33 3 l21 21 3 -52
c3 -51 4 -53 33 -53 l29 0 0 70 0 70 35 0 c31 0 35 3 35 25 0 26 -5 28 -86 39
-40 6 -43 4 -78 -41z"/>
<path d="M1353 1593 c-7 -2 -13 -16 -13 -29 0 -23 2 -24 76 -24 l76 0 -16 -25
c-21 -31 -20 -38 4 -53 18 -11 24 -9 50 20 l30 32 0 -67 0 -68 28 3 27 3 3
108 3 107 -128 -1 c-70 0 -134 -3 -140 -6z"/>
<path d="M536 1373 c-3 -4 -6 -30 -6 -59 l0 -53 -47 -3 c-44 -3 -48 -5 -51
-30 -3 -27 -2 -28 47 -28 l51 0 0 -45 c0 -41 2 -45 24 -45 25 0 36 21 36 73 0
15 4 27 9 27 5 0 12 8 14 18 4 13 5 11 6 -5 1 -22 5 -23 77 -23 l75 0 -3 28
-3 27 -85 1 -85 0 -5 54 c-4 42 -9 54 -27 61 -11 4 -24 5 -27 2z"/>
<path d="M286 1313 c-20 -21 -36 -41 -36 -45 0 -5 -7 -8 -15 -8 -12 0 -15 -19
-15 -110 l0 -110 30 0 30 0 0 80 0 80 60 0 c57 0 60 1 60 24 0 25 -16 36 -52
36 -17 0 -18 3 -8 15 7 8 9 15 5 15 -4 0 -2 7 5 15 10 12 10 18 0 30 -18 22
-25 19 -64 -22z"/>
<path d="M1275 1297 c-30 -30 -45 -37 -75 -37 -29 0 -41 -6 -53 -24 -9 -13
-13 -26 -10 -30 4 -3 30 -6 60 -6 l53 0 0 -34 c0 -26 5 -35 22 -39 33 -9 38
-1 38 60 0 45 5 62 22 80 l22 23 -21 22 -22 21 -36 -36z"/>
<path d="M537 933 c-4 -3 -7 -48 -7 -98 0 -79 -3 -94 -20 -110 -26 -23 -25
-34 3 -44 14 -6 29 -4 42 5 11 8 44 14 77 14 62 0 70 5 61 38 -5 19 -12 22
-54 22 l-49 0 0 68 c0 37 -3 77 -6 90 -6 21 -33 30 -47 15z"/>
<path d="M1567 874 c-4 -4 -7 -31 -7 -60 l0 -53 -82 -3 c-82 -3 -83 -3 -86
-30 -3 -28 -2 -28 52 -28 47 0 54 -3 49 -16 -3 -9 0 -20 8 -26 11 -8 10 -8 -5
-4 -13 4 -30 -5 -57 -33 -46 -45 -48 -58 -14 -67 21 -5 32 1 61 32 84 93 106
114 120 114 12 0 14 16 12 88 -3 79 -5 87 -23 90 -12 2 -24 0 -28 -4z"/>
<path d="M220 709 l0 -130 28 3 27 3 3 95 c4 130 -2 160 -33 160 l-25 0 0
-131z"/>
<path d="M1250 525 l0 -105 -45 0 c-43 0 -45 -1 -45 -30 l0 -30 71 0 c61 0 73
3 90 23 10 12 18 26 19 31 0 4 11 17 24 27 13 10 33 34 44 53 17 30 18 35 5
40 -29 12 -47 5 -74 -26 l-28 -33 -1 78 0 77 -30 0 -30 0 0 -105z"/>
<path d="M321 524 c-31 -36 -48 -49 -44 -35 3 11 2 32 -1 46 -6 22 -9 23 -31
13 -24 -11 -25 -15 -25 -100 l0 -89 93 3 c91 3 92 3 92 28 0 22 -5 25 -43 28
l-43 3 23 30 c13 17 35 43 49 57 45 46 41 71 -13 72 -3 0 -29 -25 -57 -56z"/>
<path d="M455 399 c-4 -12 -3 -25 2 -30 5 -5 70 -8 144 -7 l134 3 3 28 3 27
-140 0 c-133 0 -140 -1 -146 -21z"/>
</g>
</svg>
