<?xml version="1.0" standalone="no"?>
<!DOCTYPE svg PUBLIC "-//W3C//DTD SVG 20010904//EN"
 "http://www.w3.org/TR/2001/REC-SVG-20010904/DTD/svg10.dtd">
<svg version="1.0" xmlns="http://www.w3.org/2000/svg"
 width="98.000000pt" height="126.000000pt" viewBox="0 0 98.000000 126.000000"
 preserveAspectRatio="xMidYMid meet">
<metadata>
Created by potrace 1.15, written by Peter Selinger 2001-2017
</metadata>
<g transform="translate(0.000000,126.000000) scale(0.100000,-0.100000)"
fill="#000000" stroke="none">
<path d="M387 1180 c-86 -22 -200 -108 -246 -186 l-20 -34 25 0 c18 0 41 17
80 60 77 83 145 115 244 115 62 0 85 -5 131 -28 150 -73 259 -280 259 -492 0
-214 -115 -428 -267 -498 -36 -16 -67 -22 -123 -22 -91 0 -148 23 -217 88 -45
42 -92 107 -78 107 3 0 33 -13 66 -30 58 -28 89 -31 89 -6 0 18 -191 110 -208
100 -16 -10 -64 -137 -66 -174 -1 -15 5 -26 15 -28 12 -2 22 11 35 47 16 46
34 67 34 42 0 -6 25 -37 56 -70 38 -41 77 -71 122 -93 60 -30 76 -33 152 -33
104 0 172 28 251 102 240 224 252 667 25 910 -76 82 -159 124 -253 129 -38 2
-85 -1 -106 -6z"/>
</g>
</svg>
