<?xml version="1.0" standalone="no"?>
<!DOCTYPE svg PUBLIC "-//W3C//DTD SVG 20010904//EN"
 "http://www.w3.org/TR/2001/REC-SVG-20010904/DTD/svg10.dtd">
<svg version="1.0" xmlns="http://www.w3.org/2000/svg"
 width="98.000000pt" height="126.000000pt" viewBox="0 0 98.000000 126.000000"
 preserveAspectRatio="xMidYMid meet">
<metadata>
Created by potrace 1.15, written by Peter Selinger 2001-2017
</metadata>
<g transform="translate(0.000000,126.000000) scale(0.100000,-0.100000)"
fill="#000000" stroke="none">
<path d="M379 1207 c-25 -7 -66 -25 -91 -40 -44 -26 -148 -129 -148 -148 0
-25 -18 -3 -34 42 -13 36 -23 49 -35 47 -10 -2 -16 -13 -15 -28 2 -37 50 -164
66 -174 17 -10 208 82 208 100 0 25 -31 22 -89 -6 -33 -17 -63 -30 -66 -30
-14 0 33 65 78 107 69 65 126 88 217 88 56 0 87 -6 123 -22 152 -70 267 -284
267 -498 0 -212 -109 -419 -259 -492 -46 -23 -69 -28 -131 -28 -99 0 -167 32
-244 115 -39 43 -62 60 -80 60 l-25 0 20 -34 c31 -54 124 -135 186 -164 48
-22 72 -26 143 -27 76 0 92 3 152 33 119 58 223 196 264 350 94 356 -104 739
-393 758 -40 2 -87 -2 -114 -9z"/>
</g>
</svg>
