<svg xmlns="http://www.w3.org/2000/svg" width="210mm" height="297mm" viewBox="0 0 210 297"><g stroke-width=".3"><path d="M33 69.6l-3-.2a29 29 0 0 1-11.9-4.6A33.4 33.4 0 0 1 2.8 41.3c-.4-3.8-.4-8.4 0-12.4a31 31 0 0 1 9.4-18.3 34 34 0 0 1 14-8.7C29.3 1 37 .4 43.3 1a31 31 0 0 1 18.4 9.4 34 34 0 0 1 8.6 14 54.8 54.8 0 0 1 1 17.2c-.5 4.8-2.6 9.7-6 14.2a28.2 28.2 0 0 1-5.9 6.3 30.9 30.9 0 0 1-15.8 7.3c-4 .4-9 .5-10.6.2zm9.7-1.3A35 35 0 0 0 60 59.8c.2-.4-1-1.6-7.7-8.4L40.6 40 37 36.5 25.5 47.8A244 244 0 0 0 14 59.5c.1.6 3.1 3 5.6 4.4a34.8 34.8 0 0 0 23.1 4.4zm-7.1-2.2l-4.7-7.4c-3.8-6.2-4.2-7.1-3-7.3.5 0 1.6.8 4.8 3.6a20 20 0 0 0 4.4 3.4c.2 0 2-1.6 4.3-3.4 3-2.6 4-3.3 4.6-3.3.5 0 .6.2.6.7a37 37 0 0 1-3.2 5.6l-4.5 7.2c-1 1.5-1.6 2.3-2 2.3-.2 0-.8-.5-1.3-1.4zm4.1-5.4c1.5-2.2 2.6-4.1 2.5-4.2l-2.4 2a10 10 0 0 1-2.9 1.9 10 10 0 0 1-2.8-2c-1.2-1-2.3-2-2.4-1.9 0 .2 5 8.4 5.3 8.4l2.7-4.2zM24.4 47c6.2-6.3 11.3-11.5 11.3-11.7a662 662 0 0 0-23.1-22.8c-.4 0-2.9 3-4.3 5.4a34.1 34.1 0 0 0-1.7 31.7c1.7 3.5 5.3 8.8 6.2 8.8.2 0 5.4-5.2 11.6-11.4zm-10-5.3A795 795 0 0 0 7.2 37c-2.5-1.6-3-2.1-2.1-2.8 1-.8 14.6-8.7 15-8.7.5 0 .7.4.5 1.2a36 36 0 0 1-3.5 4.4l-3.4 4 3.5 4.3c3.5 4.3 4 5.2 2.6 5.3-.5 0-2-.9-5.4-3zm1.1-1.5c-1.2-1.7-3.2-4-3.5-4.1-.7-.5-.4-1.2 1.9-3.7l2.2-2.7c-.2-.2-8.8 5-9 5.3 0 .2 8.1 5.6 8.6 5.6l-.2-.4zm47.6 16.3a34 34 0 0 0 2.6-38.6 21.3 21.3 0 0 0-4.4-5.5c-.4-.1-23 22.5-23 23 0 .4 22.9 23 23.2 22.9l1.6-1.8zM53.6 45c-.5-.5-.1-1.5 1-2.8l3.7-4 2.3-2.8-2-2.3c-4.4-5.2-5.2-6.2-5.2-6.7 0-.3.2-.6.4-.7.4-.1.8 0 5.2 2.8a818.6 818.6 0 0 0 10.5 6.9c.2.5-.5 1-7.8 5.4-6.8 4-7.8 4.6-8.1 4.2zm10-7.3c1.8-1 3.3-2 3.2-2.1 0-.2-5.8-3.9-7.4-4.7-.7-.4-.4 0 1.5 2.1.8 1 1.5 2 1.5 2.3 0 .3-1 1.6-2.1 3l-2.1 2.5a654.6 654.6 0 0 1 5.5-3.1zm-15-15.3c10-9.8 11.5-11.4 11.3-11.8A32.7 32.7 0 0 0 37 1.8a32.3 32.3 0 0 0-22.9 9A485.7 485.7 0 0 0 37 34l11.7-11.5zm-21-3.7l-.4-.7a117 117 0 0 1 9.9-15c.5-.2 1.2.8 5.1 7.2l4.7 7.8c.1.2 0 .5-.2.7-.5.4-1.6 0-2.6-1a50.2 50.2 0 0 0-7.2-5.8l-4.1 3.5c-4 3.4-4.7 3.8-5.3 3.3zm7-7.2c1.2-1 2.2-1.8 2.4-1.8a7 7 0 0 1 2 1.4l2.6 2.2 1 .8-.5-1a49.8 49.8 0 0 0-5-7.6 76 76 0 0 0-5.2 8l-.5.9.6-.6 2.6-2.3z"/><path d="M31.4 69.5A34.6 34.6 0 0 1 4 46.1a42.7 42.7 0 0 1 0-21.6A35.4 35.4 0 0 1 26.1 2a42.7 42.7 0 0 1 21.6 0A35.4 35.4 0 0 1 70 24.4 42.7 42.7 0 0 1 70 46a36 36 0 0 1-6.6 11.9c-1.7 2-1.7 2-3.7 3.7a34.2 34.2 0 0 1-28.4 7.9zm8.8-.7a34.4 34.4 0 0 0 20-9c.2-.4-.7-1.4-6.3-7a1033 1033 0 0 0-11.7-11.5l-5.2-5-11.4 11.1A428.2 428.2 0 0 0 14 59.1c-.3.6 0 1.1 2.2 2.8a34.5 34.5 0 0 0 24.1 7zM36 66.3a144 144 0 0 1-8.4-14c0-1.3 1.1-.7 5.2 3a80 80 0 0 0 4.2 3.5l3.9-3.1c2-1.8 4-3.4 4.5-3.6.7-.5 1.2-.4 1.2.2A603.6 603.6 0 0 0 38.2 66c-.9 1.6-1.5 1.6-2.3.3zm3.6-5c3.7-5.8 3.7-5.8 3.2-5.5l-3 2.4a19.3 19.3 0 0 1-2.8 2.2c-.2 0-1.5-1-3-2.4-2.7-2.4-3.2-2.7-2.8-2 1 1.8 5.7 9.1 5.9 9.1a37 37 0 0 0 2.5-3.7zM22.1 49.6l11.4-11.7 2.5-2.5-2.9-3c-1.6-1.7-6.8-7-11.7-11.7-8.7-8.7-8.8-8.7-9.3-8.2l-1.7 2a34.1 34.1 0 0 0-.6 41c1.3 1.8 2.6 3.1 3 3.1.1 0 4.3-4 9.3-9zm-7-7.7l-7.3-4.6c-2-1.3-2.7-1.9-2.7-2.3 0-.5 1.3-1.4 7.4-5 4-2.4 7.5-4.3 7.7-4.3.2.1.4.4.4.7 0 .5-.4 1-4.3 5.4a49 49 0 0 0-2.8 3.4l3.4 4.3c3.3 4 3.9 5 3 5.3l-4.9-3zm1.5-.6c0-.2-4-5-4.4-5.2-.7-.5-.3-1.2 2-3.9 1.4-1.5 2.4-2.8 2.3-2.9-.2-.1-9.5 5.3-9.6 5.7a45 45 0 0 0 4.8 3.3c5 3.3 5 3.2 5 3zm47 15a34.1 34.1 0 0 0-2-44c-.5-.3-1.6.7-7.8 6.9L42.2 30.8 38 35.2l2.9 3c1.6 1.7 6.8 7 11.7 11.7 8.7 8.7 8.7 8.7 9.3 8.2l1.7-2zm-10-11.5c-.3-.5-.4-.3 3.7-5.1 1.8-2.1 3.2-4 3.2-4.1 0-.2-1.5-2.2-3.4-4.4-3.2-3.7-4-5.1-3-5.1.3 0 13.3 8 14.8 9 .4.4.5.6.2 1-.3.5-13.8 8.7-14.8 9-.4 0-.7 0-.8-.3zm8.8-6c2.6-1.5 4.7-3 4.7-3a87 87 0 0 0-8.8-5.5l.6.9c3.5 4.1 3.5 4.2 3.3 4.6a37 37 0 0 1-2.2 2.7c-2.6 3-2.7 3.2-2.5 3.2l5-2.8zM48.5 23c6.2-6 11.4-11.3 11.6-11.6.3-.5-.1-1-2.2-2.7a34.1 34.1 0 0 0-44 2.1c-.3.5 1.1 2 11.3 12C31.6 29 36.9 34.2 37 34.1c.1 0 5.3-5 11.5-11.2zm-21-4.5v-.7a642 642 0 0 1 9-14.3c.2-.3.6-.5.8-.4.5.2 9.6 15 9.4 15.5-.3.7-1 .3-3.7-2-5-4.2-5.7-4.8-6-4.8l-2 1.6c-6.3 5.5-7 6-7.4 5.1zm6.4-6c1.5-1.2 3-2.3 3.2-2.3s1.6 1 3 2.3l2.8 2.2c.2-.2-5.5-9.3-5.8-9.4l-2.8 4.1C31 14.5 30.8 15 31.1 15l2.8-2.4z"/><path d="M31.7 69.5c-4.5-.5-9.4-2.4-13.3-5A35 35 0 0 1 2.7 30.3c.8-6.4 3.4-12.2 8-17.5 1.7-2.2 1.7-2.1 3.8-4 5.4-4.5 11-7 17.7-7.8 7.1-1 13.3 0 19.6 2.8a35 35 0 0 1 19.9 31.5 34 34 0 0 1-10.1 24.5c-2.5 2.4-7 5.6-10 7a36.7 36.7 0 0 1-20 2.8zm10.3-.8a33 33 0 0 0 13.9-5.3c2.5-1.6 4.6-3.5 4.6-4L48.8 47.6 37 36 25.2 47.7c-11 11-11.7 11.8-11.4 12.3A34.4 34.4 0 0 0 42 68.8zm-5.6-1.9c-1-1-8.8-14-8.8-14.5 0-.3.2-.5.4-.6.2 0 2.2 1.5 4.5 3.5s4.2 3.6 4.4 3.6c.2 0 2.2-1.6 4.5-3.4 6-5 6.3-4.8 1.9 2.2a914.4 914.4 0 0 0-6.2 9.6.9.9 0 0 1-.7-.4zm3.6-6c3.1-4.9 3.5-5.4 3.1-5.4 0 0-1.5 1-3 2.3-1.6 1.3-3 2.4-3.2 2.4s-1.7-1.1-3.3-2.5c-3-2.5-3.4-2.8-3-2.2a98 98 0 0 0 6.4 9.9l3-4.5zM24.7 47l11.6-11.7-11.7-11.6a344.7 344.7 0 0 0-12-11.6c-.6-.1-1.6.9-3.3 3.3a34.5 34.5 0 0 0-.6 38.7c1.8 2.7 3.6 4.7 4 4.6.2 0 5.6-5.3 12-11.8zm-12-6.7c-8.2-5.3-7.8-5-7.6-5.5.2-.4 14.4-9 15-9l.2.6c0 .4-1.1 2-3.4 4.6a30 30 0 0 0-3.4 4.2c0 .2 1.5 2.2 3.4 4.5s3.4 4.3 3.4 4.5c-.1.1-.3.3-.5.3a70 70 0 0 1-7.1-4.2zm4.1 1a476.3 476.3 0 0 1-5-6l2.7-3.3 2.6-3.2a57 57 0 0 0-10.2 6.4c.5.6 9.8 6.5 10 6.5.2 0 .2-.2 0-.5zm46 16.2a34.8 34.8 0 0 0 4.9-36.7c-1.8-3.8-5.7-9.1-6.5-9-.2 0-5.6 5.4-12 11.9L37.8 35.3l11.6 11.6c6.4 6.3 11.8 11.6 12 11.6.3 0 1-.5 1.5-1.1zm-9.1-13c0-.3 1.5-2.3 3.4-4.5a29 29 0 0 0 3.6-4.3c.1-.2-1.2-2-3-4l-3.6-4.4c-.4-.6-.4-.7 0-.8.2-.1 1.8.7 4.3 2.3l7.1 4.4c3.5 2.1 3.8 2.4 3.6 2.8a174 174 0 0 1-15 8.9.4.4 0 0 1-.4-.4zm9-5.7c2.6-1.5 4.7-2.9 4.6-3a93 93 0 0 0-9.6-6l2.2 2.8c1.2 1.4 2.2 2.7 2.2 2.9l-2.6 3.4a55 55 0 0 0-2.7 3.2c0 .2.8-.2 6-3.3zM49 22.7l11.8-11.8-1.2-1.1A34.4 34.4 0 0 0 18.2 7a16.7 16.7 0 0 0-4.8 3.9c0 .3 23.3 23.4 23.6 23.4l11.9-11.7zm-21.3-4.4c0-.2.7-1.7 1.8-3.4L34 7.6c1.8-3 2.8-4.2 3.1-4.2a103.1 103.1 0 0 1 9.4 14.8c0 .6-.9.4-1.7-.3-1.3-1.2-7.6-6.5-7.8-6.5L32.8 15c-3.9 3.4-4.8 4-5.2 3.3zm6.3-5.5l3-2.8c.1 0 1.6 1.1 3.2 2.5s3 2.5 3.1 2.4a69.8 69.8 0 0 0-6.2-10 52.3 52.3 0 0 0-6.5 10.4l3.3-2.6z"/><path d="M33.6 69.7a37.5 37.5 0 0 1-19.2-8.4 34.7 34.7 0 0 1-11.3-33A35 35 0 0 1 9.9 14a43.2 43.2 0 0 0 3-3.7A35.5 35.5 0 0 1 32.6 1a33.7 33.7 0 0 1 30.6 11.9A34.2 34.2 0 0 1 63 58a35.5 35.5 0 0 1-29.3 11.7zm6.7-.6a34 34 0 0 0 18.2-7.3c3-2.4 4-.9-9.3-14-6.5-6.4-12-11.6-12.2-11.6-.7 0-23.5 22.7-23.5 23.3 0 1 4.5 4.5 8 6.2a36.1 36.1 0 0 0 18.8 3.4zM36 65.9l-4.4-7.2c-5.2-8.2-5-8.6 1-3.3 2.2 2 4.2 3.5 4.4 3.5.2 0 1.8-1.2 3.7-2.8 4.6-3.7 5.2-4.2 5.5-4 .3.2.3.3-4.3 7.6l-4.3 7c0 .7-1 .2-1.6-.8zm4.5-5.5a780 780 0 0 0 3.3-5.2c.5-.9-.5-.2-3.4 2.3a40.8 40.8 0 0 1-3.4 2.6 39 39 0 0 1-3.2-2.6 34.1 34.1 0 0 0-3.4-2.7c-.3 0 0 .4 3.4 6a33 33 0 0 0 3.2 4.6c.2 0 1.7-2.2 3.5-5zM24.8 47.1a266 266 0 0 0 11.4-12c0-.4-23-23.2-23.6-23.4-.8-.1-4.4 4.7-6.1 8.1a35.9 35.9 0 0 0-1.2 28c1.8 4.9 6.6 11.7 7.7 11 .2 0 5.5-5.3 11.8-11.7zm-11.4-6.6L6.2 36c-.5-.4-1-.8-1-1 0-.4 14-9 14.7-9 .9 0 .3 1-3 4.9a29 29 0 0 0-3.6 4.3c0 .1 1.4 2.1 3.3 4.4 3.3 4 3.7 4.5 3.2 4.9-.1 0-3-1.7-6.4-3.9zm4 1.4c0-.2-1.2-1.7-2.6-3.5a47.3 47.3 0 0 1-2.7-3.3l2.8-3.4c2.5-2.8 3.2-3.9 2.6-3.5-2.3 1.2-11 6.5-11 6.7a145.6 145.6 0 0 0 11 7zM63 57.5l2.6-3.4c8-12.2 7.2-29.1-1.9-40.3-2.5-3-.9-4.1-14.1 9.3a330.6 330.6 0 0 0-11.7 12.1c0 .5 23.1 23.6 23.7 23.6.2 0 .8-.6 1.4-1.3zm-9-13c-.3-.3.5-1.2 3.8-5 1.7-2 3.1-3.8 3.1-4a30 30 0 0 0-3.4-4.5c-3.2-3.6-4-4.8-3.2-4.8l4.7 2.9 7.3 4.5 2.8 2c0 .4-14.3 9.2-14.8 9.2l-.4-.2zm7.6-4.9c5.7-3.4 6.3-3.8 6-4.1a135 135 0 0 0-10.4-6.2l.4.7 2.5 2.8c1 1.1 1.9 2.3 1.9 2.6a21 21 0 0 1-2.7 3.5c-2.3 2.8-2.9 3.5-2.5 3.5l4.8-2.8zM49 22.9a167 167 0 0 0 11.5-12c0-.6-1.8-2.3-4.7-4.2a34.4 34.4 0 0 0-40.2 1.9c-3.1 2.5-4.2 1 9.3 14.2C32 30 36.8 34.4 37 34.4c.3 0 5.7-5.2 12-11.5zM27.7 18a2437.5 2437.5 0 0 0 7.5-12.3c1.8-2.4 2-2.7 2.5-2a226.3 226.3 0 0 1 8.7 14.7c-.3.3-.4.3-5.1-3.7-2-1.8-4-3.3-4.1-3.3-.2 0-1.8 1.3-3.6 2.9-5 4.2-5 4.3-5.4 4.3-.2 0-.4-.2-.4-.5zm5.8-5c1.8-1.5 3.4-2.7 3.6-2.7l3.3 2.5c1.7 1.4 3 2.5 3.2 2.4.2-.2-6.1-10.5-6.5-10.5a39 39 0 0 0-3.5 5.2c-3.3 5.2-3.7 6-3.4 6l3.3-2.9z"/><path d="M33.4 69.7c-.8 0-1.4-.2-1.3-.3h5c3.5 0 4.4.1 3.3.3-1.5.2-4.6.2-7 0zm-1.2-10A31.7 31.7 0 0 1 28 52c.2-.2.4-.1.9.2l4 3.7c2 1.7 3.7 3 4 3s2.2-1.4 4.4-3.3c4-3.4 4.7-3.8 4.7-3.3A524.5 524.5 0 0 0 37 67c-.1 0-2.3-3.3-4.8-7.3zm6.4 3.8c3.6-5.7 5.5-8.8 5.5-9 0-.4-.8.2-3.9 2.8a22.3 22.3 0 0 1-3.3 2.5c-.1 0-1.6-1-3.2-2.5-4.6-4-4.8-4-1.8.8 3.6 5.7 4.8 7.6 5 7.6.2 0 1-1 1.7-2.2zm-26-4c-.2 0-.2-.3-.1-.4.2-.1.7.2.7.5s-.5.3-.7 0zm48.2 0c0-.3.2-.4.4-.4.5 0 .4.5 0 .7-.2 0-.4-.1-.4-.3zm-7-7.5l-4-4a94.9 94.9 0 0 1 4 4zm.1-7.8a84.8 84.8 0 0 0 7.1-8.7c0-.2-1.5-2.2-3.4-4.4-3.1-3.6-4-4.9-3-4.5.2 0 3.2 2 6.6 4 3.5 2.3 6.6 4.2 7 4.3s.5.5.5.7c0 .4-13.4 8.7-14.3 8.9-.3 0-.5-.1-.5-.3zm8.2-4.8a43 43 0 0 0 5.5-3.7c0-.3-7.4-5.1-10.2-6.5-1-.6-.6.1 1.8 3 1.4 1.4 2.5 2.8 2.6 3 0 .2-1 1.7-2.5 3.4-3.3 3.8-3.4 4-3 4 .2 0 2.9-1.4 5.8-3.2zm-46.4 2.4a650 650 0 0 0-7-4.5 18.2 18.2 0 0 1-3.3-2.4l2-1.5a2635.3 2635.3 0 0 0 12.3-7.3c1.1-.5 0 1.2-3 4.7a27 27 0 0 0-3.5 4.3c0 .3 1.5 2.3 3.3 4.4L20 44c.3.7-.7.3-4.3-2zm.4-2l-2.8-3.4-1.1-1.3 1.6-1.9c4.2-4.8 4.8-5.7 3.6-5a96 96 0 0 0-11 6.7c0 .3-.3.2 6.3 4.4a21 21 0 0 0 5 2.8c0-.1-.7-1.2-1.6-2.3zm17.3-1c1.7-1.7 3-3.3 3-3.5 0-.2-.8-1.3-1.8-2.4l-2-2 2 1.9c1.2 1 2.2 2 2.4 2s1.8-1.5 3.5-3.2h.1s-3 3.4-3 3.6c0 .2.9 1.3 2 2.5l2 2.2-2.1-2a13 13 0 0 0-2.5-2.1 26 26 0 0 0-3.5 3L30.3 42zM71 40.1v-5l.2-4.8.2 2.6c.2 2.4 0 7.8-.4 7.2zM2.5 37.6c-.2-2.4 0-7.9.4-7.3v5l-.2 4.8zm17.3-19.2l-4.1-4.2 3.8 3.7a737.9 737.9 0 0 0 .3.5zm8-.3l4.1-6.8 4.6-7.2c.1-.4.4-.6.6-.6.4.1 9.2 14.1 9.2 14.6s-.8.2-1.5-.5a112 112 0 0 0-7.7-6.4l-4.3 3.5c-3.6 3.1-5 4.1-5 3.4zm5.8-4.8a52 52 0 0 1 3.4-3l3.3 2.7c3 2.6 4.4 3.4 3.5 2l-3.4-5.5c-1.6-2.7-3.1-5-3.3-5A116 116 0 0 0 30 15.7c-.4 1 .3.5 3.6-2.4zM12.5 11c.1-.5.7-.6.7 0 0 .1-.2.3-.4.3-.3 0-.4-.1-.3-.3zm48.4 0c-.2-.4.1-.6.5-.3.2.2.2.4 0 .5l-.5-.1zm-24-10H32l2.6-.2a22 22 0 0 1 7.2.3h-5z"/><path d="M33.6 69.6l3.3-.1c3.3 0 4.2 0 3.1.1-1.9.3-4.5.3-6.4 0zm0-8.1l-4.4-7c-1.2-1.7-1.4-2.3-1-2.3A99 99 0 0 1 36 59l-3-2.4-3.1-2.6c-.5 0 .1 1.3 3.4 6.4 2.1 3.4 3.5 5.3 3.8 5.3.2 0 1-1 1.8-2.3l1.6-2.2-.4.8-1.7 2.8-1.3 2-3.5-5.3zm2.9-2c-.3-.4-.3-.4 0-.3.4.1.9 0 1.4-.4l.8-.6-.8.8c-.8 1-1 1-1.4.4zm3-2l.6-.6s0 .3-.3.6l-.6.5s0-.2.3-.5zm1.9-1.6c.2-.3.5-.5.6-.5l-.4.5a2 2 0 0 1-.6.5l.4-.5zm2.3-2c2.2-2 3-2 1.5 0-.5.6-.8.9-.8.6 0-.6-.3-.6-1.4.2l.7-.8zm10.4-9.6c0-.1.8-1.2 1.9-2.3s1.5-1.5.9-.8c-1.2 1.4-1.3 1.6-.7 1.8.3 0 .2.3-.6.8-1.2.8-1.3.8-1.5.5zm-35.7-.9c-.7-.4-1.2-.9-1.2-1l.2.1c.5.3.8-.1.5-.7-.1-.3.2 0 .8.6 1 1 1.4 1.8 1 1.8l-1.3-.8zM58.2 42s.2-.3.5-.4l.5-.2-.5.5-.5.1zm2.6-1.6l.5-.4c.2-.2.6-.2.6-.1l-.6.4-.5.1zm-44.5-.6c-.3-.4-.3-.4.1 0 .3.1.5.3.5.4 0 .2-.2 0-.6-.4zm55-4.4c0-4.6 0-4.7.2-2.4v4.8c-.3 2.2-.3 2-.3-2.4zM2.4 37v-4.7c.3-1.8.3-1.5.3 2.7v4.7L2.5 37zm56 2l.7-.6-.5.7-.8.6.5-.6zm1-1.2l.5-.5c.4-.3.4-.3 0 .1-.3.5-.5.6-.5.4zm-46-1.4c-.4-.5-.4-.5 0-.1l.5.4c0 .2-.2.1-.6-.3zm54.2-.2c.2-.2.2-.6.2-.8-.2-.4-.1-.4.3-.2.7.4.7.7-.2 1-.6.4-.6.3-.3 0zm-6.6-.7c0-.3-.9-1.6-2.2-3a21.7 21.7 0 0 1-2-2.7s3 3.2 4.4 5c.5.6.5.7.2 1-.4.2-.4.2-.4-.3zm-24.5 0c-.3-.5.3-1 .7-.6.3.3.1.9-.3.9l-.4-.3zm-31-.4c-.2-.6.1-.9.5-.4.3.5.3.8 0 .8-.2 0-.4-.2-.5-.4zm6.8.1a34 34 0 0 1 2.9-3.6c3-3.6 3.7-4.6 2.1-3.8-1 .6-.5 0 .8-.7 1.3-.9 1.9-1 1.9-.6 0 .2-1.6 2-3.4 4-1.9 2-3.5 4-3.6 4.4-.3.6-.7.8-.7.3zm54.3-.6c-.4-.4-.4-.4.1-.2.4.2.6.4.6.5 0 .2-.1.1-.7-.3zm-1.6-1l-.8-.6c0-.2 1.5.6 1.7 1 .2.3 0 .3-.9-.4zm-1.8-1.2c-.5-.3-.5-.4 0 0 .4 0 .7.3.7.3 0 .2-.1.2-.7-.3zM60 30.5c-3-1.8-3.4-2-3.4-1.4 0 .3-.3.2-1-.5-1-1-1.5-1.8-1.3-2a88 88 0 0 1 8 5c.8.7.3.5-2.3-1zm-45.8-1l.6-.3.5-.2s-.2.3-.5.4l-.6.2zm1.4-.7s.2-.3.5-.4l.5-.2s-.2.3-.5.4l-.5.2zM28 18a73.1 73.1 0 0 1 4.4-6.8 28 28 0 0 0-2.8 5.3c.1.1.4 0 1-.3.4-.3 0 0-.7.8-1.3 1.3-1.9 1.6-1.9 1zm16-1.3l-.8-1c.4.2.8.4 1 .3.3-.1.2-.3-2.2-4.3a6780.8 6780.8 0 0 1-2-3.4c.1 0 6.3 9.7 6.3 9.9 0 .4-.8-.1-2.2-1.5zm-12.3-1.4c0-.3 5.1-4.7 5.4-4.7.2 0 1 .8 2 1.7l1.7 1.6-1.7-1.4a8 8 0 0 0-2.1-1.3c-.2 0-1.5 1-2.8 2.1l-2.5 2zm9.8-.9l-.7-.7.8.6.7.7c0 .3-.2 0-.8-.6zm-8-5.4l.5-.5s0 .3-.2.5l-.4.6.2-.6zm5.8-1.6zm-3.4-2l.5-.6s0 .3-.2.5l-.4.6.1-.6zm.9-1.4l.3-.5s.3.2.4.5c.2.4.2.5-.4.5s-.6 0-.3-.5zm-2-3.2c1.4-.2 3.2-.2 4.7 0 2.3.2 2.2.2-2.4.2-4.5 0-4.6 0-2.4-.2z"/><path d="M34 69.6a46.7 46.7 0 0 1 7.1-.2c-.1.3-5.4.4-7 .2zm2.7-3.4l.3-.3.3.3-.3.3-.3-.3zm-8.3-13c-.3-.4-.3-.7-.1-.7.3-.1 1.3.7 1.3 1 0 .5-.8.2-1.2-.3zm16.3.4c0-.3.5-.9.8-.9.2 0 .1.2 0 .5-.3.6-.8.8-.8.4zm9.8-9.9c.3-.5 1-.7 1-.3 0 .3-.8.8-1.2.8l.2-.5zm-35.6 0l-.4-.7c0-.4 0-.4.6.1.6.7.5 1-.2.6zm52.3-8.3c0-4 0-4.3.2-2.3v4.5c-.2 2-.2 1.8-.2-2.2zM2.5 37v-4.4c.3-1.7.3-1.3.3 2.4v4.5L2.5 37zm52.7-9c-1.3-1.3-.7-1.3.8-.1.5.4.6.5.2.6-.2.1-.6-.1-1-.5zm-36.7-.5c.1-.5 1-1 1.2-.8.2.2-.6 1.2-1 1.2-.2 0-.2-.2-.2-.4zm9.8-10c.5-.6 1-.9 1-.4s-.5 1-1 1c-.3 0-.3 0 0-.5zm16.7 0c-.4-.4-.6-.8-.5-1 .3-.3.6 0 1.1.9.5 1 .2 1-.6.1zM34.9.8h4.5c2 .2 1.7.2-2.3.2S33 1 35 .8z"/></g></svg>