<?xml version="1.0" standalone="no"?>
<!DOCTYPE svg PUBLIC "-//W3C//DTD SVG 20010904//EN"
 "http://www.w3.org/TR/2001/REC-SVG-20010904/DTD/svg10.dtd">
<svg version="1.0" xmlns="http://www.w3.org/2000/svg"
 width="168.000000pt" height="106.000000pt" viewBox="0 0 168.000000 106.000000"
 preserveAspectRatio="xMidYMid meet">
<metadata>
Created by potrace 1.15, written by Peter Selinger 2001-2017
</metadata>
<g transform="translate(0.000000,106.000000) scale(0.100000,-0.100000)"
fill="#000000" stroke="none">
<path d="M1186 892 c-53 -10 -93 -23 -98 -32 -6 -10 -3 -52 9 -120 16 -92 20
-105 38 -105 23 0 25 21 11 114 l-8 54 42 -24 c24 -13 66 -44 93 -69 182 -163
98 -384 -186 -490 -254 -95 -594 -47 -759 108 -70 65 -92 112 -93 192 0 53 5
73 27 112 36 60 106 121 179 156 49 23 58 31 58 54 1 25 -1 27 -23 18 -110
-41 -214 -126 -261 -212 -26 -46 -30 -63 -30 -128 0 -61 5 -84 27 -125 57
-109 189 -199 363 -246 116 -32 336 -32 450 -1 174 48 306 138 363 247 36 69
38 179 3 244 -32 60 -106 138 -165 171 l-49 29 39 6 c96 15 109 20 109 40 0
26 -27 28 -139 7z"/>
</g>
</svg>
