<svg width="100" height="100" version="1.1" viewBox="0 0 26.458333 26.458334" xmlns="http://www.w3.org/2000/svg">
 <g transform="matrix(.38162653 0 0 .38154312 -.79461515 -.25934327)" stroke-width=".30000001">
  <path d="m33 69.6-3-0.2c-2.7 0-8.2-2.2-11.9-4.6a33.4 33.4 0 0 1-15.3-23.5c-0.4-3.8-0.4-8.4 0-12.4a31 31 0 0 1 9.4-18.3 34 34 0 0 1 14-8.7c3.1-0.9 10.8-1.5 17.1-0.9a31 31 0 0 1 18.4 9.4 34 34 0 0 1 8.6 14c1.1 3.2 1.5 10.8 1 17.2-0.5 4.8-2.6 9.7-6 14.2a28.2 28.2 0 0 1-5.9 6.3 30.9 30.9 0 0 1-15.8 7.3c-4 0.4-9 0.5-10.6 0.2zm9.7-1.3a35 35 0 0 0 17.3-8.5c0.2-0.4-1-1.6-7.7-8.4l-11.7-11.4-3.6-3.5-11.5 11.3c-7 6.9-11.5 11.5-11.5 11.7 0.1 0.6 3.1 3 5.6 4.4a34.8 34.8 0 0 0 23.1 4.4zm-7.1-2.2-4.7-7.4c-3.8-6.2-4.2-7.1-3-7.3 0.5 0 1.6 0.8 4.8 3.6 2.2 2 4.2 3.5 4.4 3.4 0.2 0 2-1.6 4.3-3.4 3-2.6 4-3.3 4.6-3.3 0.5 0 0.6 0.2 0.6 0.7 0 0.4-1.5 2.9-3.2 5.6l-4.5 7.2c-1 1.5-1.6 2.3-2 2.3-0.2 0-0.8-0.5-1.3-1.4zm4.1-5.4c1.5-2.2 2.6-4.1 2.5-4.2l-2.4 2a10 10 0 0 1-2.9 1.9 10 10 0 0 1-2.8-2c-1.2-1-2.3-2-2.4-1.9 0 0.2 5 8.4 5.3 8.4zm-15.3-13.7c6.2-6.3 11.3-11.5 11.3-11.7a662 662 0 0 0-23.1-22.8c-0.4 0-2.9 3-4.3 5.4a34.1 34.1 0 0 0-1.7 31.7c1.7 3.5 5.3 8.8 6.2 8.8 0.2 0 5.4-5.2 11.6-11.4zm-10-5.3a795 795 0 0 0-7.2-4.7c-2.5-1.6-3-2.1-2.1-2.8 1-0.8 14.6-8.7 15-8.7 0.5 0 0.7 0.4 0.5 1.2a36 36 0 0 1-3.5 4.4l-3.4 4 3.5 4.3c3.5 4.3 4 5.2 2.6 5.3-0.5 0-2-0.9-5.4-3zm1.1-1.5c-1.2-1.7-3.2-4-3.5-4.1-0.7-0.5-0.4-1.2 1.9-3.7l2.2-2.7c-0.2-0.2-8.8 5-9 5.3 0 0.2 8.1 5.6 8.6 5.6zm47.6 16.3a34 34 0 0 0 2.6-38.6 21.3 21.3 0 0 0-4.4-5.5c-0.4-0.1-23 22.5-23 23 0 0.4 22.9 23 23.2 22.9zm-9.5-11.5c-0.5-0.5-0.1-1.5 1-2.8l3.7-4 2.3-2.8-2-2.3c-4.4-5.2-5.2-6.2-5.2-6.7 0-0.3 0.2-0.6 0.4-0.7 0.4-0.1 0.8 0 5.2 2.8a818.6 818.6 0 0 0 10.5 6.9c0.2 0.5-0.5 1-7.8 5.4-6.8 4-7.8 4.6-8.1 4.2zm10-7.3c1.8-1 3.3-2 3.2-2.1 0-0.2-5.8-3.9-7.4-4.7-0.7-0.4-0.4 0 1.5 2.1 0.8 1 1.5 2 1.5 2.3s-1 1.6-2.1 3l-2.1 2.5a654.6 654.6 0 0 1 5.5-3.1zm-15-15.3c10-9.8 11.5-11.4 11.3-11.8a32.7 32.7 0 0 0-22.9-8.8 32.3 32.3 0 0 0-22.9 9 485.7 485.7 0 0 0 22.9 23.2l11.7-11.5zm-21-3.7-0.4-0.7a117 117 0 0 1 9.9-15c0.5-0.2 1.2 0.8 5.1 7.2l4.7 7.8c0.1 0.2 0 0.5-0.2 0.7-0.5 0.4-1.6 0-2.6-1a50.2 50.2 0 0 0-7.2-5.8l-4.1 3.5c-4 3.4-4.7 3.8-5.3 3.3zm7-7.2c1.2-1 2.2-1.8 2.4-1.8s1.1 0.6 2 1.4l2.6 2.2 1 0.8-0.5-1a49.8 49.8 0 0 0-5-7.6 76 76 0 0 0-5.2 8l-0.5 0.9 0.6-0.6z"/>
  <path d="m31.4 69.5a34.6 34.6 0 0 1-27.4-23.4 42.7 42.7 0 0 1 0-21.6 35.4 35.4 0 0 1 22.1-22.5 42.7 42.7 0 0 1 21.6 0 35.4 35.4 0 0 1 22.3 22.4 42.7 42.7 0 0 1 0 21.6 36 36 0 0 1-6.6 11.9c-1.7 2-1.7 2-3.7 3.7-5 4.2-11.4 7.2-16.5 7.8-3.9 0.4-8.7 0.5-11.9 0.1zm8.8-0.7a34.4 34.4 0 0 0 20-9c0.2-0.4-0.7-1.4-6.3-7a1033 1033 0 0 0-11.7-11.5l-5.2-5-11.4 11.1a428.2 428.2 0 0 0-11.6 11.7c-0.3 0.6 0 1.1 2.2 2.8a34.5 34.5 0 0 0 24.1 7zm-4.2-2.5c-6-9.5-8.4-13.6-8.4-14 0-1.3 1.1-0.7 5.2 3a80 80 0 0 0 4.2 3.5l3.9-3.1c2-1.8 4-3.4 4.5-3.6 0.7-0.5 1.2-0.4 1.2 0.2a603.6 603.6 0 0 0-8.4 13.7c-0.9 1.6-1.5 1.6-2.3 0.3zm3.6-5c3.7-5.8 3.7-5.8 3.2-5.5l-3 2.4a19.3 19.3 0 0 1-2.8 2.2c-0.2 0-1.5-1-3-2.4-2.7-2.4-3.2-2.7-2.8-2 1 1.8 5.7 9.1 5.9 9.1a37 37 0 0 0 2.5-3.7zm-17.5-11.7 11.4-11.7 2.5-2.5-2.9-3c-1.6-1.7-6.8-7-11.7-11.7-8.7-8.7-8.8-8.7-9.3-8.2l-1.7 2a34.1 34.1 0 0 0-0.6 41c1.3 1.8 2.6 3.1 3 3.1 0.1 0 4.3-4 9.3-9zm-7-7.7-7.3-4.6c-2-1.3-2.7-1.9-2.7-2.3 0-0.5 1.3-1.4 7.4-5 4-2.4 7.5-4.3 7.7-4.3 0.2 0.1 0.4 0.4 0.4 0.7 0 0.5-0.4 1-4.3 5.4a49 49 0 0 0-2.8 3.4l3.4 4.3c3.3 4 3.9 5 3 5.3l-4.9-3zm1.5-0.6c0-0.2-4-5-4.4-5.2-0.7-0.5-0.3-1.2 2-3.9 1.4-1.5 2.4-2.8 2.3-2.9-0.2-0.1-9.5 5.3-9.6 5.7 0 0.1 2.1 1.6 4.8 3.3 5 3.3 5 3.2 5 3zm47 15a34.1 34.1 0 0 0-2-44c-0.5-0.3-1.6 0.7-7.8 6.9l-11.6 11.6-4.2 4.4 2.9 3c1.6 1.7 6.8 7 11.7 11.7 8.7 8.7 8.7 8.7 9.3 8.2l1.7-2zm-10-11.5c-0.3-0.5-0.4-0.3 3.7-5.1 1.8-2.1 3.2-4 3.2-4.1 0-0.2-1.5-2.2-3.4-4.4-3.2-3.7-4-5.1-3-5.1 0.3 0 13.3 8 14.8 9 0.4 0.4 0.5 0.6 0.2 1-0.3 0.5-13.8 8.7-14.8 9-0.4 0-0.7 0-0.8-0.3zm8.8-6c2.6-1.5 4.7-3 4.7-3-0.1-0.3-8.4-5.5-8.8-5.5l0.6 0.9c3.5 4.1 3.5 4.2 3.3 4.6a37 37 0 0 1-2.2 2.7c-2.6 3-2.7 3.2-2.5 3.2l5-2.8zm-13.9-15.8c6.2-6 11.4-11.3 11.6-11.6 0.3-0.5-0.1-1-2.2-2.7a34.1 34.1 0 0 0-44 2.1c-0.3 0.5 1.1 2 11.3 12 6.4 6.2 11.7 11.4 11.8 11.3 0.1 0 5.3-5 11.5-11.2zm-21-4.5v-0.7a642 642 0 0 1 9-14.3c0.2-0.3 0.6-0.5 0.8-0.4 0.5 0.2 9.6 15 9.4 15.5-0.3 0.7-1 0.3-3.7-2-5-4.2-5.7-4.8-6-4.8l-2 1.6c-6.3 5.5-7 6-7.4 5.1zm6.4-6c1.5-1.2 3-2.3 3.2-2.3s1.6 1 3 2.3l2.8 2.2c0.2-0.2-5.5-9.3-5.8-9.4l-2.8 4.1c-3.3 5.1-3.5 5.6-3.2 5.6l2.8-2.4z"/>
  <path d="m31.7 69.5c-4.5-0.5-9.4-2.4-13.3-5a35 35 0 0 1-15.7-34.2c0.8-6.4 3.4-12.2 8-17.5 1.7-2.2 1.7-2.1 3.8-4 5.4-4.5 11-7 17.7-7.8 7.1-1 13.3 0 19.6 2.8a35 35 0 0 1 19.9 31.5 34 34 0 0 1-10.1 24.5c-2.5 2.4-7 5.6-10 7a36.7 36.7 0 0 1-20 2.8zm10.3-0.8c5.2-0.8 9.8-2.5 13.9-5.3 2.5-1.6 4.6-3.5 4.6-4l-11.7-11.8-11.8-11.6-11.8 11.7c-11 11-11.7 11.8-11.4 12.3a34.4 34.4 0 0 0 28.2 8.8zm-5.6-1.9c-1-1-8.8-14-8.8-14.5 0-0.3 0.2-0.5 0.4-0.6 0.2 0 2.2 1.5 4.5 3.5s4.2 3.6 4.4 3.6 2.2-1.6 4.5-3.4c6-5 6.3-4.8 1.9 2.2a914.4 914.4 0 0 0-6.2 9.6c-0.2 0-0.5-0.1-0.7-0.4zm3.6-6c3.1-4.9 3.5-5.4 3.1-5.4 0 0-1.5 1-3 2.3-1.6 1.3-3 2.4-3.2 2.4s-1.7-1.1-3.3-2.5c-3-2.5-3.4-2.8-3-2.2 2 3.5 6.2 10 6.4 9.9zm-15.3-13.8 11.6-11.7-11.7-11.6a344.7 344.7 0 0 0-12-11.6c-0.6-0.1-1.6 0.9-3.3 3.3a34.5 34.5 0 0 0-0.6 38.7c1.8 2.7 3.6 4.7 4 4.6 0.2 0 5.6-5.3 12-11.8zm-12-6.7c-8.2-5.3-7.8-5-7.6-5.5 0.2-0.4 14.4-9 15-9l0.2 0.6c0 0.4-1.1 2-3.4 4.6-1.9 2.1-3.4 4-3.4 4.2s1.5 2.2 3.4 4.5 3.4 4.3 3.4 4.5c-0.1 0.1-0.3 0.3-0.5 0.3a70 70 0 0 1-7.1-4.2zm4.1 1a476.3 476.3 0 0 1-5-6l2.7-3.3 2.6-3.2a57 57 0 0 0-10.2 6.4c0.5 0.6 9.8 6.5 10 6.5s0.2-0.2 0-0.5zm46 16.2a34.8 34.8 0 0 0 4.9-36.7c-1.8-3.8-5.7-9.1-6.5-9-0.2 0-5.6 5.4-12 11.9l-11.4 11.6 11.6 11.6c6.4 6.3 11.8 11.6 12 11.6 0.3 0 1-0.5 1.5-1.1zm-9.1-13c0-0.3 1.5-2.3 3.4-4.5 2-2.1 3.6-4.1 3.6-4.3 0.1-0.2-1.2-2-3-4l-3.6-4.4c-0.4-0.6-0.4-0.7 0-0.8 0.2-0.1 1.8 0.7 4.3 2.3l7.1 4.4c3.5 2.1 3.8 2.4 3.6 2.8-0.3 0.5-14.4 8.9-15 8.9-0.2 0-0.4-0.2-0.4-0.4zm9-5.7c2.6-1.5 4.7-2.9 4.6-3a93 93 0 0 0-9.6-6l2.2 2.8c1.2 1.4 2.2 2.7 2.2 2.9l-2.6 3.4a55 55 0 0 0-2.7 3.2c0 0.2 0.8-0.2 6-3.3zm-13.7-16.1 11.8-11.8-1.2-1.1a34.4 34.4 0 0 0-41.4-2.8 16.7 16.7 0 0 0-4.8 3.9c0 0.3 23.3 23.4 23.6 23.4l11.9-11.7zm-21.3-4.4c0-0.2 0.7-1.7 1.8-3.4l4.5-7.3c1.8-3 2.8-4.2 3.1-4.2a103.1 103.1 0 0 1 9.4 14.8c0 0.6-0.9 0.4-1.7-0.3-1.3-1.2-7.6-6.5-7.8-6.5l-4.2 3.6c-3.9 3.4-4.8 4-5.2 3.3zm6.3-5.5 3-2.8c0.1 0 1.6 1.1 3.2 2.5s3 2.5 3.1 2.4a69.8 69.8 0 0 0-6.2-10 52.3 52.3 0 0 0-6.5 10.4l3.3-2.6z"/>
  <path d="m33.6 69.7a37.5 37.5 0 0 1-19.2-8.4 34.7 34.7 0 0 1-11.3-33 35 35 0 0 1 6.8-14.3 43.2 43.2 0 0 0 3-3.7 35.5 35.5 0 0 1 19.7-9.3 33.7 33.7 0 0 1 30.6 11.9 34.2 34.2 0 0 1-0.2 45.1 35.5 35.5 0 0 1-29.3 11.7zm6.7-0.6a34 34 0 0 0 18.2-7.3c3-2.4 4-0.9-9.3-14-6.5-6.4-12-11.6-12.2-11.6-0.7 0-23.5 22.7-23.5 23.3 0 1 4.5 4.5 8 6.2a36.1 36.1 0 0 0 18.8 3.4zm-4.3-3.2-4.4-7.2c-5.2-8.2-5-8.6 1-3.3 2.2 2 4.2 3.5 4.4 3.5s1.8-1.2 3.7-2.8c4.6-3.7 5.2-4.2 5.5-4s0.3 0.3-4.3 7.6l-4.3 7c0 0.7-1 0.2-1.6-0.8zm4.5-5.5a780 780 0 0 0 3.3-5.2c0.5-0.9-0.5-0.2-3.4 2.3a40.8 40.8 0 0 1-3.4 2.6 39 39 0 0 1-3.2-2.6 34.1 34.1 0 0 0-3.4-2.7c-0.3 0 0 0.4 3.4 6a33 33 0 0 0 3.2 4.6c0.2 0 1.7-2.2 3.5-5zm-15.7-13.3a266 266 0 0 0 11.4-12c0-0.4-23-23.2-23.6-23.4-0.8-0.1-4.4 4.7-6.1 8.1a35.9 35.9 0 0 0-1.2 28c1.8 4.9 6.6 11.7 7.7 11 0.2 0 5.5-5.3 11.8-11.7zm-11.4-6.6-7.2-4.5c-0.5-0.4-1-0.8-1-1 0-0.4 14-9 14.7-9 0.9 0 0.3 1-3 4.9-2 2.2-3.6 4-3.6 4.3 0 0.1 1.4 2.1 3.3 4.4 3.3 4 3.7 4.5 3.2 4.9-0.1 0-3-1.7-6.4-3.9zm4 1.4c0-0.2-1.2-1.7-2.6-3.5a47.3 47.3 0 0 1-2.7-3.3l2.8-3.4c2.5-2.8 3.2-3.9 2.6-3.5-2.3 1.2-11 6.5-11 6.7a145.6 145.6 0 0 0 11 7zm45.6 15.6 2.6-3.4c8-12.2 7.2-29.1-1.9-40.3-2.5-3-0.9-4.1-14.1 9.3a330.6 330.6 0 0 0-11.7 12.1c0 0.5 23.1 23.6 23.7 23.6 0.2 0 0.8-0.6 1.4-1.3zm-9-13c-0.3-0.3 0.5-1.2 3.8-5 1.7-2 3.1-3.8 3.1-4a30 30 0 0 0-3.4-4.5c-3.2-3.6-4-4.8-3.2-4.8l4.7 2.9 7.3 4.5 2.8 2c0 0.4-14.3 9.2-14.8 9.2l-0.4-0.2zm7.6-4.9c5.7-3.4 6.3-3.8 6-4.1-0.5-0.5-10.2-6.3-10.4-6.2l0.4 0.7 2.5 2.8c1 1.1 1.9 2.3 1.9 2.6 0 0.2-1.2 1.8-2.7 3.5-2.3 2.8-2.9 3.5-2.5 3.5zm-12.6-16.7a167 167 0 0 0 11.5-12c0-0.6-1.8-2.3-4.7-4.2a34.4 34.4 0 0 0-40.2 1.9c-3.1 2.5-4.2 1 9.3 14.2 7.1 7.2 11.9 11.6 12.1 11.6 0.3 0 5.7-5.2 12-11.5zm-21.3-4.9a2437.5 2437.5 0 0 0 7.5-12.3c1.8-2.4 2-2.7 2.5-2a226.3 226.3 0 0 1 8.7 14.7c-0.3 0.3-0.4 0.3-5.1-3.7-2-1.8-4-3.3-4.1-3.3-0.2 0-1.8 1.3-3.6 2.9-5 4.2-5 4.3-5.4 4.3-0.2 0-0.4-0.2-0.4-0.5zm5.8-5c1.8-1.5 3.4-2.7 3.6-2.7l3.3 2.5c1.7 1.4 3 2.5 3.2 2.4 0.2-0.2-6.1-10.5-6.5-10.5a39 39 0 0 0-3.5 5.2c-3.3 5.2-3.7 6-3.4 6z"/>
  <path d="m33.4 69.7c-0.8 0-1.4-0.2-1.3-0.3h5c3.5 0 4.4 0.1 3.3 0.3-1.5 0.2-4.6 0.2-7 0zm-1.2-10a31.7 31.7 0 0 1-4.2-7.7c0.2-0.2 0.4-0.1 0.9 0.2l4 3.7c2 1.7 3.7 3 4 3s2.2-1.4 4.4-3.3c4-3.4 4.7-3.8 4.7-3.3a524.5 524.5 0 0 0-9 14.7c-0.1 0-2.3-3.3-4.8-7.3zm6.4 3.8c3.6-5.7 5.5-8.8 5.5-9 0-0.4-0.8 0.2-3.9 2.8a22.3 22.3 0 0 1-3.3 2.5c-0.1 0-1.6-1-3.2-2.5-4.6-4-4.8-4-1.8 0.8 3.6 5.7 4.8 7.6 5 7.6s1-1 1.7-2.2zm-26-4c-0.2 0-0.2-0.3-0.1-0.4 0.2-0.1 0.7 0.2 0.7 0.5s-0.5 0.3-0.7 0zm48.2 0c0-0.3 0.2-0.4 0.4-0.4 0.5 0 0.4 0.5 0 0.7-0.2 0-0.4-0.1-0.4-0.3zm-7-7.5-4-4a94.9 94.9 0 0 1 4 4zm0.1-7.8a84.8 84.8 0 0 0 7.1-8.7c0-0.2-1.5-2.2-3.4-4.4-3.1-3.6-4-4.9-3-4.5 0.2 0 3.2 2 6.6 4 3.5 2.3 6.6 4.2 7 4.3s0.5 0.5 0.5 0.7c0 0.4-13.4 8.7-14.3 8.9-0.3 0-0.5-0.1-0.5-0.3zm8.2-4.8a43 43 0 0 0 5.5-3.7c0-0.3-7.4-5.1-10.2-6.5-1-0.6-0.6 0.1 1.8 3 1.4 1.4 2.5 2.8 2.6 3 0 0.2-1 1.7-2.5 3.4-3.3 3.8-3.4 4-3 4 0.2 0 2.9-1.4 5.8-3.2zm-46.4 2.4a650 650 0 0 0-7-4.5 18.2 18.2 0 0 1-3.3-2.4l2-1.5a2635.3 2635.3 0 0 0 12.3-7.3c1.1-0.5 0 1.2-3 4.7a27 27 0 0 0-3.5 4.3c0 0.3 1.5 2.3 3.3 4.4l3.5 4.5c0.3 0.7-0.7 0.3-4.3-2zm0.4-2-2.8-3.4-1.1-1.3 1.6-1.9c4.2-4.8 4.8-5.7 3.6-5-2.4 1.1-11 6.4-11 6.7s-0.3 0.2 6.3 4.4c2.6 1.7 4.9 3 5 2.8 0-0.1-0.7-1.2-1.6-2.3zm17.3-1c1.7-1.7 3-3.3 3-3.5s-0.8-1.3-1.8-2.4l-2-2 2 1.9c1.2 1 2.2 2 2.4 2s1.8-1.5 3.5-3.2h0.1s-3 3.4-3 3.6 0.9 1.3 2 2.5l2 2.2-2.1-2a13 13 0 0 0-2.5-2.1c-0.2 0-1.8 1.4-3.5 3l-3.2 3.2zm37.6 1.3v-5l0.2-4.8 0.2 2.6c0.2 2.4 0 7.8-0.4 7.2zm-68.5-2.5c-0.2-2.4 0-7.9 0.4-7.3v5l-0.2 4.8zm17.3-19.2-4.1-4.2 3.8 3.7a737.9 737.9 0 0 0 0.3 0.5zm8-0.3 4.1-6.8 4.6-7.2c0.1-0.4 0.4-0.6 0.6-0.6 0.4 0.1 9.2 14.1 9.2 14.6s-0.8 0.2-1.5-0.5a112 112 0 0 0-7.7-6.4l-4.3 3.5c-3.6 3.1-5 4.1-5 3.4zm5.8-4.8a52 52 0 0 1 3.4-3l3.3 2.7c3 2.6 4.4 3.4 3.5 2l-3.4-5.5c-1.6-2.7-3.1-5-3.3-5-0.3 0-6.7 10.1-7.1 11.2-0.4 1 0.3 0.5 3.6-2.4zm-21.1-2.3c0.1-0.5 0.7-0.6 0.7 0 0 0.1-0.2 0.3-0.4 0.3-0.3 0-0.4-0.1-0.3-0.3zm48.4 0c-0.2-0.4 0.1-0.6 0.5-0.3 0.2 0.2 0.2 0.4 0 0.5l-0.5-0.1zm-24-10h-4.9l2.6-0.2c2.3-0.3 7.8 0 7.2 0.3h-5z"/>
  <path d="m33.6 69.6 3.3-0.1c3.3 0 4.2 0 3.1 0.1-1.9 0.3-4.5 0.3-6.4 0zm0-8.1-4.4-7c-1.2-1.7-1.4-2.3-1-2.3a99 99 0 0 1 7.8 6.8l-3-2.4-3.1-2.6c-0.5 0 0.1 1.3 3.4 6.4 2.1 3.4 3.5 5.3 3.8 5.3 0.2 0 1-1 1.8-2.3l1.6-2.2-0.4 0.8-1.7 2.8-1.3 2zm2.9-2c-0.3-0.4-0.3-0.4 0-0.3 0.4 0.1 0.9 0 1.4-0.4l0.8-0.6-0.8 0.8c-0.8 1-1 1-1.4 0.4zm3-2 0.6-0.6s0 0.3-0.3 0.6l-0.6 0.5s0-0.2 0.3-0.5zm1.9-1.6c0.2-0.3 0.5-0.5 0.6-0.5l-0.4 0.5a2 2 0 0 1-0.6 0.5zm2.3-2c2.2-2 3-2 1.5 0-0.5 0.6-0.8 0.9-0.8 0.6 0-0.6-0.3-0.6-1.4 0.2zm10.4-9.6c0-0.1 0.8-1.2 1.9-2.3s1.5-1.5 0.9-0.8c-1.2 1.4-1.3 1.6-0.7 1.8 0.3 0 0.2 0.3-0.6 0.8-1.2 0.8-1.3 0.8-1.5 0.5zm-35.7-0.9c-0.7-0.4-1.2-0.9-1.2-1l0.2 0.1c0.5 0.3 0.8-0.1 0.5-0.7-0.1-0.3 0.2 0 0.8 0.6 1 1 1.4 1.8 1 1.8zm39.8-1.4s0.2-0.3 0.5-0.4l0.5-0.2-0.5 0.5zm2.6-1.6 0.5-0.4c0.2-0.2 0.6-0.2 0.6-0.1l-0.6 0.4zm-44.5-0.6c-0.3-0.4-0.3-0.4 0.1 0 0.3 0.1 0.5 0.3 0.5 0.4 0 0.2-0.2 0-0.6-0.4zm55-4.4c0-4.6 0-4.7 0.2-2.4v4.8c-0.3 2.2-0.3 2-0.3-2.4zm-68.9 1.6v-4.7c0.3-1.8 0.3-1.5 0.3 2.7v4.7l-0.2-2.7zm56 2 0.7-0.6-0.5 0.7-0.8 0.6 0.5-0.6zm1-1.2 0.5-0.5c0.4-0.3 0.4-0.3 0 0.1-0.3 0.5-0.5 0.6-0.5 0.4zm-46-1.4c-0.4-0.5-0.4-0.5 0-0.1l0.5 0.4c0 0.2-0.2 0.1-0.6-0.3zm54.2-0.2c0.2-0.2 0.2-0.6 0.2-0.8-0.2-0.4-0.1-0.4 0.3-0.2 0.7 0.4 0.7 0.7-0.2 1-0.6 0.4-0.6 0.3-0.3 0zm-6.6-0.7c0-0.3-0.9-1.6-2.2-3a21.7 21.7 0 0 1-2-2.7s3 3.2 4.4 5c0.5 0.6 0.5 0.7 0.2 1-0.4 0.2-0.4 0.2-0.4-0.3zm-24.5 0c-0.3-0.5 0.3-1 0.7-0.6 0.3 0.3 0.1 0.9-0.3 0.9zm-31-0.4c-0.2-0.6 0.1-0.9 0.5-0.4 0.3 0.5 0.3 0.8 0 0.8-0.2 0-0.4-0.2-0.5-0.4zm6.8 0.1a34 34 0 0 1 2.9-3.6c3-3.6 3.7-4.6 2.1-3.8-1 0.6-0.5 0 0.8-0.7 1.3-0.9 1.9-1 1.9-0.6 0 0.2-1.6 2-3.4 4-1.9 2-3.5 4-3.6 4.4-0.3 0.6-0.7 0.8-0.7 0.3zm54.3-0.6c-0.4-0.4-0.4-0.4 0.1-0.2 0.4 0.2 0.6 0.4 0.6 0.5 0 0.2-0.1 0.1-0.7-0.3zm-1.6-1-0.8-0.6c0-0.2 1.5 0.6 1.7 1 0.2 0.3 0 0.3-0.9-0.4zm-1.8-1.2c-0.5-0.3-0.5-0.4 0 0 0.4 0 0.7 0.3 0.7 0.3 0 0.2-0.1 0.2-0.7-0.3zm-3.2-1.9c-3-1.8-3.4-2-3.4-1.4 0 0.3-0.3 0.2-1-0.5-1-1-1.5-1.8-1.3-2a88 88 0 0 1 8 5c0.8 0.7 0.3 0.5-2.3-1zm-45.8-1 0.6-0.3 0.5-0.2s-0.2 0.3-0.5 0.4l-0.6 0.2zm1.4-0.7s0.2-0.3 0.5-0.4l0.5-0.2s-0.2 0.3-0.5 0.4zm12.4-10.8a73.1 73.1 0 0 1 4.4-6.8 28 28 0 0 0-2.8 5.3c0.1 0.1 0.4 0 1-0.3 0.4-0.3 0 0-0.7 0.8-1.3 1.3-1.9 1.6-1.9 1zm16-1.3-0.8-1c0.4 0.2 0.8 0.4 1 0.3 0.3-0.1 0.2-0.3-2.2-4.3a6780.8 6780.8 0 0 1-2-3.4c0.1 0 6.3 9.7 6.3 9.9 0 0.4-0.8-0.1-2.2-1.5zm-12.3-1.4c0-0.3 5.1-4.7 5.4-4.7 0.2 0 1 0.8 2 1.7l1.7 1.6-1.7-1.4a8 8 0 0 0-2.1-1.3c-0.2 0-1.5 1-2.8 2.1zm9.8-0.9-0.7-0.7 0.8 0.6 0.7 0.7c0 0.3-0.2 0-0.8-0.6zm-8-5.4 0.5-0.5s0 0.3-0.2 0.5l-0.4 0.6 0.2-0.6zm5.8-1.6zm-3.4-2 0.5-0.6s0 0.3-0.2 0.5l-0.4 0.6 0.1-0.6zm0.9-1.4 0.3-0.5s0.3 0.2 0.4 0.5c0.2 0.4 0.2 0.5-0.4 0.5s-0.6 0-0.3-0.5zm-2-3.2c1.4-0.2 3.2-0.2 4.7 0 2.3 0.2 2.2 0.2-2.4 0.2-4.5 0-4.6 0-2.4-0.2z"/>
  <path d="m34 69.6a46.7 46.7 0 0 1 7.1-0.2c-0.1 0.3-5.4 0.4-7 0.2zm2.7-3.4 0.3-0.3 0.3 0.3-0.3 0.3zm-8.3-13c-0.3-0.4-0.3-0.7-0.1-0.7 0.3-0.1 1.3 0.7 1.3 1 0 0.5-0.8 0.2-1.2-0.3zm16.3 0.4c0-0.3 0.5-0.9 0.8-0.9 0.2 0 0.1 0.2 0 0.5-0.3 0.6-0.8 0.8-0.8 0.4zm9.8-9.9c0.3-0.5 1-0.7 1-0.3 0 0.3-0.8 0.8-1.2 0.8zm-35.6 0-0.4-0.7c0-0.4 0-0.4 0.6 0.1 0.6 0.7 0.5 1-0.2 0.6zm52.3-8.3c0-4 0-4.3 0.2-2.3v4.5c-0.2 2-0.2 1.8-0.2-2.2zm-68.7 1.6v-4.4c0.3-1.7 0.3-1.3 0.3 2.4v4.5zm52.7-9c-1.3-1.3-0.7-1.3 0.8-0.1 0.5 0.4 0.6 0.5 0.2 0.6-0.2 0.1-0.6-0.1-1-0.5zm-36.7-0.5c0.1-0.5 1-1 1.2-0.8s-0.6 1.2-1 1.2c-0.2 0-0.2-0.2-0.2-0.4zm9.8-10c0.5-0.6 1-0.9 1-0.4s-0.5 1-1 1c-0.3 0-0.3 0 0-0.5zm16.7 0c-0.4-0.4-0.6-0.8-0.5-1 0.3-0.3 0.6 0 1.1 0.9 0.5 1 0.2 1-0.6 0.1zm-10.1-16.7h4.5c2 0.2 1.7 0.2-2.3 0.2s-4.1 0-2.1-0.2z"/>
 </g>
</svg>
