<?xml version="1.0" standalone="no"?>
<!DOCTYPE svg PUBLIC "-//W3C//DTD SVG 20010904//EN"
 "http://www.w3.org/TR/2001/REC-SVG-20010904/DTD/svg10.dtd">
<svg version="1.0" xmlns="http://www.w3.org/2000/svg"
 width="126.000000pt" height="98.000000pt" viewBox="0 0 126.000000 98.000000"
 preserveAspectRatio="xMidYMid meet">
<metadata>
Created by potrace 1.15, written by Peter Selinger 2001-2017
</metadata>
<g transform="translate(0.000000,98.000000) scale(0.100000,-0.100000)"
fill="#000000" stroke="none">
<path d="M175 759 c-9 -14 -7 -15 50 -25 l50 -9 -67 -33 c-152 -73 -188 -170
-97 -263 21 -21 43 -39 50 -39 6 0 22 -9 36 -20 14 -11 35 -20 47 -20 12 0 26
-4 31 -8 26 -22 112 -42 229 -53 289 -26 556 33 663 148 82 88 43 181 -107
257 -38 20 -72 36 -75 36 -14 0 -3 -41 13 -46 59 -19 114 -56 140 -95 30 -44
25 -99 -13 -139 -33 -35 -134 -88 -189 -100 -191 -41 -240 -49 -301 -50 -38 0
-113 10 -165 21 -52 12 -114 25 -136 29 -54 12 -155 65 -189 100 -38 40 -43
95 -13 140 13 19 33 39 45 45 11 6 27 16 35 22 20 17 98 42 98 32 0 -5 -5 -9
-10 -9 -6 0 -14 -8 -17 -17 -4 -10 -14 -23 -22 -30 -14 -10 -14 -12 3 -19 15
-6 30 4 68 46 26 29 48 57 48 61 0 5 -10 11 -22 13 -13 3 -53 12 -89 20 -77
19 -86 19 -94 5z"/>
</g>
</svg>
