<?xml version="1.0" standalone="no"?>
<!DOCTYPE svg PUBLIC "-//W3C//DTD SVG 20010904//EN"
 "http://www.w3.org/TR/2001/REC-SVG-20010904/DTD/svg10.dtd">
<svg version="1.0" xmlns="http://www.w3.org/2000/svg"
 width="168.000000pt" height="106.000000pt" viewBox="0 0 168.000000 106.000000"
 preserveAspectRatio="xMidYMid meet">
<metadata>
Created by potrace 1.15, written by Peter Selinger 2001-2017
</metadata>
<g transform="translate(0.000000,106.000000) scale(0.100000,-0.100000)"
fill="#000000" stroke="none">
<path d="M354 895 c-9 -23 3 -33 49 -40 108 -16 105 -14 51 -45 -59 -33 -133
-111 -165 -171 -35 -65 -33 -175 3 -244 57 -109 189 -199 363 -247 114 -31
334 -31 450 1 174 47 306 137 363 246 22 41 27 64 27 125 0 65 -4 82 -30 128
-47 86 -151 171 -261 212 -22 9 -24 7 -23 -18 0 -23 9 -31 58 -54 73 -35 143
-96 179 -156 35 -61 38 -156 5 -217 -111 -212 -525 -309 -830 -195 -176 66
-283 179 -283 300 0 91 77 196 190 259 l42 24 -8 -54 c-14 -93 -12 -114 11
-114 18 0 22 13 39 108 15 92 16 111 5 122 -8 7 -57 20 -110 29 -117 20 -118
20 -125 1z"/>
</g>
</svg>
