<?xml version="1.0" standalone="no"?>
<!DOCTYPE svg PUBLIC "-//W3C//DTD SVG 20010904//EN"
 "http://www.w3.org/TR/2001/REC-SVG-20010904/DTD/svg10.dtd">
<svg version="1.0" xmlns="http://www.w3.org/2000/svg"
 width="126.000000pt" height="98.000000pt" viewBox="0 0 126.000000 98.000000"
 preserveAspectRatio="xMidYMid meet">
<metadata>
Created by potrace 1.15, written by Peter Selinger 2001-2017
</metadata>
<g transform="translate(0.000000,98.000000) scale(0.100000,-0.100000)"
fill="#000000" stroke="none">
<path d="M985 754 c-33 -8 -70 -17 -82 -20 -13 -2 -23 -8 -23 -13 0 -4 22 -32
48 -61 38 -42 53 -52 68 -46 17 7 17 9 3 19 -8 7 -18 20 -22 30 -3 9 -11 17
-17 17 -5 0 -10 4 -10 9 0 10 78 -15 98 -32 8 -6 24 -16 35 -22 12 -6 32 -26
45 -45 30 -45 25 -100 -13 -140 -34 -35 -135 -88 -189 -100 -22 -4 -84 -17
-136 -29 -52 -11 -126 -21 -165 -21 -61 1 -110 9 -301 50 -55 12 -156 65 -189
100 -38 40 -43 95 -13 139 26 39 81 76 141 95 15 5 26 46 12 46 -20 0 -152
-78 -180 -107 -136 -141 59 -303 401 -334 195 -17 439 9 489 53 5 4 19 8 31 8
12 0 33 9 47 20 14 11 30 20 36 20 7 0 29 18 50 39 91 92 55 190 -97 263 l-67
33 53 9 c31 5 51 14 49 20 -5 17 -35 17 -102 0z"/>
</g>
</svg>
